<?xml version="1.0" encoding="utf-8"?><svg viewBox="0 0 27 27" xmlns="http://www.w3.org/2000/svg" xmlns:xlink="http://www.w3.org/1999/xlink"><style>:root>svg{display:none}:root>svg:target{display:block}</style><svg fill="none" viewBox="0 0 27 27" id="facebook" xmlns="http://www.w3.org/2000/svg"><path d="M27 13.534C27 6.064 20.952 0 13.5 0S0 6.063 0 13.534c0 6.55 4.644 12.004 10.8 13.263v-9.203H8.1v-4.06h2.7V10.15c0-2.612 2.12-4.736 4.725-4.736H18.9v4.06h-2.7c-.742 0-1.35.609-1.35 1.353v2.707h4.05v4.06h-4.05V27C21.668 26.323 27 20.558 27 13.534Z" fill="#fff"/></svg><svg fill="none" viewBox="0 0 27 27" id="instagram" xmlns="http://www.w3.org/2000/svg"><path d="M13.5 0c3.668 0 4.126.013 5.565.081 1.438.067 2.416.293 3.277.628a6.582 6.582 0 0 1 2.393 1.556 6.627 6.627 0 0 1 1.556 2.392c.334.86.56 1.84.628 3.278.064 1.44.081 1.897.081 5.565s-.014 4.126-.081 5.565c-.067 1.438-.294 2.416-.628 3.277a6.593 6.593 0 0 1-1.556 2.393 6.636 6.636 0 0 1-2.392 1.556c-.86.334-1.84.56-3.278.628-1.44.064-1.897.081-5.565.081s-4.126-.014-5.565-.081c-1.437-.067-2.416-.294-3.277-.628a6.602 6.602 0 0 1-2.393-1.556A6.62 6.62 0 0 1 .71 22.343c-.335-.86-.56-1.84-.628-3.278C.018 17.625 0 17.168 0 13.5s.013-4.126.081-5.565C.148 6.496.374 5.52.709 4.658a6.588 6.588 0 0 1 1.556-2.393A6.61 6.61 0 0 1 4.657.71C5.52.374 6.497.149 7.935.08 9.375.018 9.832 0 13.5 0Zm0 6.75a6.75 6.75 0 1 0 0 13.5 6.75 6.75 0 0 0 0-13.5Zm8.775-.338a1.687 1.687 0 1 0-3.375 0 1.687 1.687 0 0 0 3.375 0ZM13.5 9.45a4.05 4.05 0 1 1 0 8.1 4.05 4.05 0 0 1 0-8.1Z" fill="#fff"/></svg><svg fill="none" viewBox="0 0 27 27" id="linkedin" xmlns="http://www.w3.org/2000/svg"><rect width="27" height="27" rx="3" fill="#fff"/><path d="M5.344 2.11a2.39 2.39 0 1 0 0 4.78 2.39 2.39 0 0 0 0-4.78ZM3.094 8.86a.14.14 0 0 0-.14.14v14.625c0 .078.062.14.14.14h4.5a.14.14 0 0 0 .14-.14V9a.14.14 0 0 0-.14-.14h-4.5ZM10.406 8.86a.14.14 0 0 0-.14.14v14.625c0 .078.063.14.14.14h4.5a.14.14 0 0 0 .14-.14V15.75a2.11 2.11 0 1 1 4.22 0v7.875c0 .078.063.14.14.14h4.5a.14.14 0 0 0 .14-.14v-9.697c0-2.73-2.374-4.866-5.09-4.62a8.063 8.063 0 0 0-2.44.617l-1.47.63V9a.14.14 0 0 0-.14-.14h-4.5Z" fill="#0F1624"/></svg></svg>