<svg width="23" height="22" viewBox="0 0 23 22" fill="none" xmlns="http://www.w3.org/2000/svg">
<path d="M3.34375 0.109375C2.02344 0.109375 0.953125 1.17969 0.953125 2.5C0.953125 3.82031 2.02344 4.89062 3.34375 4.89062C4.66406 4.89062 5.73438 3.82031 5.73438 2.5C5.73438 1.17969 4.66406 0.109375 3.34375 0.109375Z" fill="#0F1624"/>
<path d="M1.09375 6.85938C1.01608 6.85938 0.953125 6.92234 0.953125 7V21.625C0.953125 21.7027 1.01608 21.7656 1.09375 21.7656H5.59375C5.67141 21.7656 5.73438 21.7027 5.73438 21.625V7C5.73438 6.92234 5.67141 6.85938 5.59375 6.85938H1.09375Z" fill="#0F1624"/>
<path d="M8.40625 6.85938C8.32859 6.85938 8.26562 6.92234 8.26562 7V21.625C8.26562 21.7027 8.32859 21.7656 8.40625 21.7656H12.9062C12.9839 21.7656 13.0469 21.7027 13.0469 21.625V13.75C13.0469 13.1906 13.2691 12.654 13.6647 12.2584C14.0603 11.8629 14.5968 11.6406 15.1562 11.6406C15.7157 11.6406 16.2522 11.8629 16.6478 12.2584C17.0434 12.654 17.2656 13.1906 17.2656 13.75V21.625C17.2656 21.7027 17.3286 21.7656 17.4062 21.7656H21.9062C21.9839 21.7656 22.0469 21.7027 22.0469 21.625V11.9278C22.0469 9.19769 19.6724 7.06187 16.9561 7.30881C16.1183 7.38497 15.2901 7.59322 14.5167 7.92469L13.0469 8.55459V7C13.0469 6.92234 12.9839 6.85938 12.9062 6.85938H8.40625Z" fill="#0F1624"/>
</svg>
